<?xml version="1.0" encoding="UTF-8"?> <svg xmlns="http://www.w3.org/2000/svg" viewBox="0 0 126 30"><path d="M14.012,12.632h6.962C17.55,5.076,9.893,.125,1,.125V15.398c0,3.356,2.78,6.142,6.2,6.039H15.671c-1.119-2.079-1.659-4.54-1.659-7.148v-1.657Z" fill="#fff"></path><path d="M30.734,29c-8.117,0-14.604-6.286-14.604-14.265h8.31c3.451,0,6.296,2.785,6.296,6.237v8.027h-.002Z" fill="#fff"></path><path d="M106.719,4.438h0c0-1.206-.448-2.221-1.28-3.107-.704-.697-1.601-1.015-2.561-1.142l-.383-.064V11.733h0v7.612c0,1.142,.96,2.092,2.112,2.092s2.112-.951,2.112-2.092v-7.23h0V4.438ZM98.385,.125h-4.677c-3.009,0-5.572,1.015-7.684,3.107-2.177,2.092-3.202,4.567-3.202,7.548v10.657l.383-.064c.96-.127,1.794-.506,2.561-1.268,.897-.888,1.28-1.839,1.28-3.045v-6.342h0c0-1.839,.641-3.425,1.922-4.693,1.28-1.333,2.881-1.966,4.738-1.966h4.675c1.087,0,1.984-.888,1.984-1.966,.004-1.142-.892-1.968-1.98-1.968Zm27.548,20.935c-.128-.888-.511-1.65-1.153-2.348h0c-.832-.824-1.794-1.206-2.946-1.206h-2.112c-1.857,0-3.458-.697-4.738-1.966-1.28-1.333-1.922-2.919-1.922-4.693h0V2.093C113.062,.951,112.103,0,110.95,0h0c-1.087,0-1.984,.888-2.112,1.966v.191h0V7.295h0v3.487c0,2.981,1.087,5.455,3.202,7.548,2.177,2.092,4.675,3.107,7.684,3.107h6.276l-.067-.378ZM53.542,3.234c-2.177-2.092-4.738-3.107-7.684-3.107-3.009,0-5.507,1.015-7.684,3.107-2.177,2.092-3.202,4.631-3.202,7.548,0,2.981,1.087,5.455,3.202,7.548,2.177,2.092,4.675,3.107,7.684,3.107h10.949V10.782c0-2.916-1.087-5.455-3.265-7.548h0Zm-1.025,14.271h-6.659c-1.857,0-3.458-.697-4.738-1.966-1.28-1.268-1.922-2.854-1.922-4.693v-.064h0c0-1.839,.641-3.425,1.922-4.758,1.28-1.333,2.881-2.03,4.738-2.03h.065c1.857,0,3.458,.697,4.738,2.03,1.28,1.333,1.922,2.919,1.922,4.758v6.724h-.065Z" fill="#fff"></path><path d="M77.496,3.234h0c-2.177-2.092-4.738-3.107-7.684-3.107-3.009,0-5.507,1.015-7.684,3.107-2.177,2.092-3.202,4.631-3.202,7.548V28.987l.383-.064c.96-.127,1.794-.506,2.561-1.268,.897-.888,1.28-1.904,1.28-3.107v-3.107h6.659c3.009-.127,5.572-1.142,7.684-3.234,2.177-2.092,3.202-4.567,3.202-7.548,.002-2.792-1.087-5.331-3.2-7.423Zm-1.025,7.548h0c0,1.839-.641,3.425-1.922,4.758-1.28,1.333-2.881,1.966-4.738,1.966h-6.724v-6.726h0c0-1.839,.641-3.425,1.922-4.693,1.218-1.268,2.688-1.904,4.354-1.966v.064l.383-.064c1.857,0,3.458,.697,4.738,2.03,1.283,1.206,1.922,2.792,1.987,4.631h0Z" fill="#fff"></path></svg> 