<?xml version="1.0" encoding="UTF-8"?>
<svg xmlns="http://www.w3.org/2000/svg" width="130" height="43" viewBox="0 0 130 43">
  <path d="M104.48,15.11c0-14.11-10.8-15.11-13.06-15.11-3.51,0-6.9,.73-10.47,2.12l-.25,3.72c1.39-.65,5.83-2.54,10.27-2.54,3.49,0,6.18,1.16,8,3.46-12.01,6.27-19.17,11.32-20.25,15.51-3.07,2.06-8.49,4.45-13.31,4.45-5.14,0-7.34-2.2-8.3-3.48,13.18-8.81,20.01-13.89,19.17-17.9C75.52,1.71,70.11,.01,65.26,.01s-8.37,2.13-9.99,3.78c-2.59,2.66-3.83,6.6-3.67,11.71,.07,2.23,.51,4.56,1.26,6.6-2.02,1.31-7.53,4.61-13.85,4.61-7.51,0-10.6-5.83-10.6-11.71s2.89-11.72,10.6-11.72c4.34,0,8.69,1.82,10.18,2.5l-.25-3.71C46.14,.99,42.46,0,39.27,0c-12.77,0-13.82,10.65-13.76,14.99-.06,4.35,1.11,14.99,13.65,14.99,7.59,0,14.03-4.14,15.2-4.89,.81,1.41,4.04,4.89,11.02,4.89,5.53,0,11.66-2.73,13.7-4.05,1.25,1.67,3.82,4.05,11.64,4.05,5.17,0,8.45-1.78,10.5-4.23,.04,1.29,.09,2.55,.14,3.51l3.13,.48c-.11-3.24-.02-14.48-.02-14.65m-49.84,1.79c-.01-.07-.87-6.66,2.67-10.7,1.83-2.09,4.54-3.14,8.04-3.14,3.78,0,6.94,1.31,7.27,2.81,.24,1.12-.83,2.56-5.71,6.45-.05,.04-4.98,4.2-11.35,7.95-.4-1.01-.71-2.15-.92-3.37m44.13,6.91c-1.83,2.09-4.59,3-8.09,3.03-7.99,.07-8.76-2.94-8.76-2.94-.83-1.84,1.87-5.57,18.56-14.35,.41,1.02,.75,2.33,.96,3.56,.01,.07,.88,6.66-2.67,10.7" style="fill: #fff;"/>
  <rect x="29" y="40" width="72" height="3" style="fill: #fff;"/>
</svg>