<?xml version="1.0" encoding="UTF-8"?> <svg xmlns="http://www.w3.org/2000/svg" viewBox="0 0 126 41"><path d="M61.49,39.973c-5.921-.213-12.004-1.64-18.222-4.275-2.531-1.072-5.207-2.401-7.931-3.936-1.796-1.013-5.908-3.5-6.137-3.712-.144-.134-.2-.259-.2-.445,0-.345,.251-.592,.602-.591,.182,0,.226,.019,.655,.282,1.723,1.056,4.107,2.251,6.429,3.225,10.817,4.536,23.631,6.129,35.933,4.466,8.401-1.135,16.476-3.792,22.775-7.493,.909-.534,.993-.562,1.265-.423,.376,.192,.458,.66,.165,.947-.115,.113-.257,.202-2.324,1.471-5.514,3.384-9.966,5.618-14.602,7.327-6.235,2.299-12.483,3.371-18.407,3.158h-.001Z" fill="#fff"></path><path d="M0,.618s.118,.375,.233,1.442c.137,2.658,.144,4.861,.16,7.317,.032,1.897,.013,3.745-.003,5.525-.011,1.205-.019,1.862-.019,2.958,0,3.261-.256,5.547-.256,5.547,0,0,2.39,.519,5.999,.519s7.439-1.26,9.649-3.15c2.209-1.89,4.197-4.595,4.197-9.449s-2.062-7.522-4.787-9.264C12.447,.322,8.286-.011,5.082,.137,1.878,.285,.111,.618,0,.618H0ZM125.496,18.886l-4.82-1.148c-1.265,1.259-2.631,1.885-4.386,1.852-3.613-.067-5.409-2.21-6.076-5.744h15.539c.221-1.26,.293-2.594,.22-3.854-.148-2.545-.924-4.887-2.504-6.892-1.564-1.985-4.254-3.027-7.58-3.002-3.123,.024-5.676,1.101-7.697,3.261-1.899,2.03-3.036,5.125-2.983,9.152,.051,3.826,1.018,6.675,3.388,9.005,1.65,1.622,3.867,2.489,6.776,2.482,5.542-.168,7.845-1.966,10.123-5.113h0Zm-3.946-8.966h-11.155c.197-2.903,2.838-5.607,5.637-5.594,2.897,.013,5.384,2.098,5.518,5.594Zm-48.914-5.427c3.689,0,6.68,3.36,6.68,7.504s-2.991,7.504-6.68,7.504-6.68-3.361-6.68-7.504,2.992-7.504,6.68-7.504Zm.144-4.492c6.19,0,11.209,5.412,11.209,11.996s-5.163,11.924-11.353,11.924-11.209-5.34-11.209-11.924S66.591,0,72.78,0h0Zm12.181,23.111h5.004V7.881c4.579,4.039,7.953,9.116,9.978,15.23l4.299,.026V.766h-4.792l-.005,10.96c-1.5-2.525-3.337-4.601-5.143-6.391-1.809-1.793-3.278-3.311-5.11-4.569h-4.231V23.111Zm-43.717,0h4.861V7.881c4.579,4.039,7.881,9.116,9.907,15.23h4.345V.766h-4.861V11.547c-2.825-4.095-6.246-7.773-10.163-10.781h-4.088V23.111h0ZM27.361,.766h4.714c4.577,5.096,7.379,12.507,8.323,22.345h-5.119c-.133-1.709-.34-3.279-.622-4.856h-10.105c-.281,1.574-.486,3.144-.615,4.856h-4.971c.897-9.897,3.901-17.555,8.396-22.345h-.001Zm6.352,13.304c-1.099-3.531-2.407-6.437-4.178-9.116-1.759,2.69-3.135,5.722-4.108,9.116h8.286ZM5.124,4.509s.988-.037,2.204-.037,3.871,.222,5.822,2.149c1.952,1.927,1.988,4.113,1.988,5.633s-.519,4.817-3.723,6.299c-3.203,1.483-6.328,.927-6.328,.927l.037-14.971Z" fill="#fff" fill-rule="evenodd"></path></svg> 