<?xml version="1.0" encoding="UTF-8"?> <svg xmlns="http://www.w3.org/2000/svg" viewBox="0 0 127 35"><path d="M100.482,29.498l5.783-17.953c.497-1.482,1.076-2.935,1.735-4.352h-2.982c-.476,2.483-2.347,7.359-3.731,12.189l-.125,.433-5.295-12.701s-2.064,.148-4.434,.148c-1.482-.004-2.962-.092-4.434-.262l7.586,19.126c2.721-.239,4.139,1.401,4.139,2.335l-.181,.627c-.42,1.413-1.259,4.659-4.195,4.659-3.504,0-2.336-4.09-2.336-4.09-.436-.077-.865-.192-1.281-.342-.316-.108-.612-.269-.873-.478-.59,1.663-.737,6.163,4.672,6.163,3.821,0,5.114-2.939,5.93-5.422h0v-.068h0" fill="#fff"></path><path d="M27.458,24.141c1.139,4.827,19.246,7.173,17.411-5.583-1.139-7.816-13.788-4.229-12.853-8.458,.638-2.853,9.116-2.346,10.255,2.019,.268-.257,.558-.49,.866-.699,.319-.214,.684-.406,.684-.406-1.721-5.977-17.537-5.808-16.796,4.128,.741,9.936,12.865,4.895,13.229,9.191,.239,2.797-9.116,3.327-11.053-1.624-.238,.352-.539,.658-.889,.902-.264,.213-.555,.391-.866,.53" fill="#fff"></path><path d="M114.558,17.832c.134-4.654,1.03-8.707,3.359-8.707s2.799,5.231,2.799,8.707h-6.158Zm1.825-10.824c-5.453,.215-9.384,4.144-9.384,10.802s4.949,10.19,10.481,10.19c3.449,0,6.719-1.608,7.838-5.061-.362-.068-.715-.178-1.053-.328-.238-.1-.466-.222-.683-.362-1.825,5.786-8.813,5.752-9.07-2.321h11.063c1.825-6.907-2.441-13.18-9.227-12.919" fill="#fff"></path><path d="M20.767,10.513c3.444,0,6.233-2.026,6.233-4.502C27-1.463,3.916-3.939,3.916,10.31v1.722H1.195c-.006,.833-.071,1.664-.195,2.487H3.916v4.029s.08,5.436-.195,7.451H13.168c-.23-2.06-.207-7.451-.207-7.451v-4.029h3.352v4.029s0,3.759-.126,7.451h9.574c-.274-2.475-.408-4.962-.402-7.451v-5.74C11.687,15.836,9.357,5.819,14.947,2.319c.62-.383,.815-.304,.964-.214s.126,.461-.149,.833h0c-.719,.868-1.144,1.934-1.217,3.05,0,2.499,2.789,4.502,6.222,4.502" fill="#fff"></path><path d="M67,25.989V11.656c0-4.658-6.742-8.297-11.146-2.239V0c-1.593,.235-3.199,.365-4.809,.392-2.079,0-4.045-.19-4.045-.19,0,0,.191,2.463,.191,6.595v11.791c0,3.807-.191,7.413-.191,7.413h9.056l-.202-7.413v-6.718c.506-1.635,2.685-2.475,2.685-.202v14.321h8.461Z" fill="#fff"></path><path d="M76.532,17.833c.134-4.653,1.041-8.706,3.358-8.706s2.798,5.23,2.798,8.706h-6.156Zm1.824-10.823c-5.451,.215-9.357,4.144-9.357,10.8s4.958,10.189,10.476,10.189c3.458,0,6.715-1.608,7.835-5.061-.362-.068-.715-.178-1.052-.328-.241-.102-.473-.223-.694-.362-1.813,5.785-8.808,5.751-9.055-2.321h11.058c1.847-6.906-2.418-13.223-9.211-12.917" fill="#fff"></path></svg> 