<?xml version="1.0" encoding="UTF-8"?><svg id="a" xmlns="http://www.w3.org/2000/svg" viewBox="0 0 139 30"><rect y="1.342" width="3.082" height="14.251" fill="#fff"/><path d="M10.001,12.073c.162,.325,.403,.602,.7,.805,.298,.216,.633,.373,.988,.463,.384,.101,.78,.151,1.177,.15,.296,0,.591-.024,.882-.071,.306-.045,.603-.136,.882-.271,.273-.123,.514-.311,.7-.549,.183-.266,.268-.589,.238-.912,.015-.352-.117-.694-.364-.941-.271-.264-.593-.467-.945-.599-.436-.171-.883-.312-1.338-.42-.497-.121-1.002-.249-1.506-.399-.52-.131-1.032-.293-1.534-.485-.475-.173-.924-.415-1.331-.72-.395-.308-.72-.699-.952-1.147-.256-.516-.381-1.089-.364-1.667-.014-.668,.148-1.327,.469-1.91,.303-.531,.714-.99,1.205-1.347,.511-.363,1.08-.633,1.681-.798,.614-.169,1.248-.255,1.884-.257,.708,0,1.413,.083,2.101,.249,.642,.152,1.25,.425,1.793,.805,.52,.368,.948,.857,1.247,1.425,.331,.661,.49,1.397,.462,2.138h-2.977c-.011-.367-.102-.728-.266-1.055-.132-.288-.337-.534-.595-.713-.263-.163-.552-.277-.854-.335-.346-.071-.698-.105-1.051-.1-.25-.002-.499,.024-.742,.078-.249,.044-.488,.138-.7,.278-.199,.128-.368,.298-.497,.499-.139,.226-.208,.489-.196,.755-.017,.248,.036,.495,.154,.713,.157,.215,.371,.38,.616,.477,.412,.18,.839,.326,1.275,.435l2.101,.563c.259,.05,.623,.15,1.093,.285,.497,.152,.969,.378,1.401,.67,.472,.323,.875,.74,1.184,1.226,.357,.59,.532,1.275,.504,1.967,.022,.619-.086,1.236-.315,1.81-.259,.555-.64,1.043-1.114,1.425-.541,.433-1.159,.755-1.821,.948-.819,.241-1.669,.356-2.521,.342-.756,0-1.509-.098-2.241-.292-.691-.178-1.344-.485-1.926-.905-.565-.411-1.028-.95-1.352-1.575-.343-.705-.504-1.487-.469-2.273h2.984c-.015,.426,.072,.848,.252,1.233h0l-.002,.002Z" fill="#fff"/><rect x="22.236" y="1.342" width="3.082" height="14.251" fill="#fff"/><path d="M32.216,12.073c.166,.322,.406,.598,.7,.805,.298,.216,.633,.373,.988,.463,.384,.101,.78,.151,1.177,.15,.296,0,.591-.024,.882-.071,.306-.045,.603-.136,.882-.271,.273-.123,.514-.311,.7-.549,.196-.261,.293-.585,.273-.912,.015-.35-.115-.691-.357-.941-.275-.263-.599-.466-.952-.599-.436-.171-.883-.312-1.338-.42-.497-.121-.995-.249-1.506-.399-.52-.131-1.032-.293-1.534-.485-.471-.174-.914-.417-1.317-.72-.403-.307-.738-.698-.981-1.147-.253-.517-.378-1.09-.364-1.667-.016-.667,.144-1.326,.462-1.91,.303-.531,.714-.99,1.205-1.347,.514-.362,1.085-.632,1.688-.798,.614-.169,1.248-.255,1.884-.257,.708,0,1.413,.083,2.101,.249,.642,.152,1.25,.425,1.793,.805,.52,.368,.948,.857,1.247,1.425,.331,.661,.49,1.397,.462,2.138h-2.977c-.011-.367-.102-.728-.266-1.055-.132-.288-.337-.534-.595-.713-.263-.163-.552-.277-.854-.335-.346-.071-.698-.105-1.051-.1-.25-.002-.499,.024-.742,.078-.249,.044-.488,.138-.7,.278-.197,.13-.366,.3-.497,.499-.139,.226-.208,.489-.196,.755-.017,.248,.036,.495,.154,.713,.161,.214,.377,.379,.623,.477,.411,.183,.838,.328,1.275,.435l2.101,.563c.266,.05,.623,.15,1.093,.285,.497,.152,.969,.378,1.401,.67,.472,.325,.877,.741,1.191,1.226,.35,.593,.522,1.276,.497,1.967,.005,.626-.122,1.245-.371,1.817-.257,.555-.635,1.042-1.107,1.425-.543,.433-1.164,.755-1.828,.948-.819,.242-1.669,.357-2.521,.342-.756,0-1.509-.098-2.241-.292-.676-.179-1.314-.481-1.884-.891-.565-.418-1.025-.964-1.345-1.596-.34-.706-.501-1.487-.469-2.273h2.984c-.021,.424,.058,.847,.231,1.233h0v.002Z" fill="#fff"/><path d="M55.37,4.2c-.177-.543-.466-1.041-.847-1.461-.422-.447-.933-.797-1.499-1.026-.714-.27-1.473-.396-2.234-.371h-6.318V15.572h3.082v-5.109h3.236c.763,.021,1.522-.112,2.234-.392,.569-.224,1.081-.575,1.499-1.026,.382-.422,.671-.923,.847-1.468,.345-1.098,.345-2.279,0-3.377Zm-2.942,2.808c-.141,.266-.349,.489-.602,.648-.264,.158-.557,.263-.861,.306-.339,.055-.681,.081-1.023,.078v.002l-2.388,.007V3.774h2.388c.343,0,.685,.026,1.023,.078,.304,.046,.597,.153,.861,.314,.254,.157,.462,.381,.602,.648,.162,.341,.239,.718,.224,1.097,.015,.379-.062,.755-.224,1.097Z" fill="#fff"/><polygon points="62.493 1.342 62.493 6.807 68.166 6.807 68.166 1.342 71.24 1.342 71.24 15.593 68.166 15.593 68.166 9.437 62.493 9.437 62.493 15.586 59.418 15.586 59.418 1.342 62.493 1.342" fill="#fff"/><path d="M82.789,1.342l-3.151-.021-5.295,14.25h3.096l1.099-3.17h5.232l1.064,3.192h3.194l-5.239-14.251Zm-3.41,8.736l1.82-5.23h.042l1.73,5.23h-3.592Z" fill="#fff"/><path d="M102.86,14.859c-.076-.299-.13-.604-.161-.912-.04-.309-.064-.621-.07-.933-.027-.265-.039-.532-.035-.798-.028-.364-.077-.725-.147-1.083-.071-.342-.186-.672-.343-.983-.155-.294-.362-.558-.609-.777-.274-.235-.597-.403-.945-.492v-.043c.714-.258,1.316-.762,1.702-1.425,.348-.656,.522-1.393,.504-2.138,.004-.525-.093-1.045-.287-1.532-.186-.468-.465-.893-.819-1.247-.374-.366-.814-.653-1.296-.848-.541-.211-1.116-.315-1.695-.306h-7.573V15.572h3.075v-5.565h3.082c.6-.056,1.198,.128,1.667,.513,.4,.456,.645,1.03,.7,1.639,.077,.57,.14,1.169,.175,1.796,.027,.551,.134,1.096,.315,1.617h3.082c-.152-.214-.262-.456-.322-.713Zm-3.71-7.581c-.455,.351-1.02,.521-1.59,.477h0l-3.376,.028V3.745h3.376c.568-.043,1.133,.124,1.59,.47,.383,.398,.575,.948,.525,1.503,.053,.572-.138,1.14-.525,1.56Z" fill="#fff"/><polygon points="111.462 1.342 114.74 11.132 117.877 1.342 122.205 1.342 122.205 15.593 119.327 15.593 119.327 5.489 119.285 5.489 115.853 15.586 113.458 15.586 110.026 5.61 110.026 15.586 107.155 15.586 107.155 1.342 111.462 1.342" fill="#fff"/><path d="M133.768,1.342l-3.165-.021-5.295,14.25h3.096l1.099-3.17h5.239l1.057,3.192h3.201l-5.232-14.251Zm-3.459,8.736l1.82-5.23h.042l1.772,5.23h-3.634Z" fill="#fff"/><path d="M33.099,23.552c-.692-.599-1.586-.9-2.493-.841h-.001l-2.402-.013v7.125h2.402c.515,.011,1.028-.074,1.513-.249,.399-.149,.757-.394,1.044-.713,.29-.336,.499-.736,.609-1.169,.139-.518,.205-1.053,.196-1.589,.076-.937-.24-1.862-.868-2.551Zm-.196,3.812c-.066,.27-.174,.527-.322,.762-.124,.191-.281,.357-.462,.492-.318,.207-.673,.349-1.044,.42-.13,.009-.261,.009-.392,0l-1.548,.007v-5.529h1.59c.371-.01,.739,.053,1.086,.185,.275,.117,.516,.303,.7,.542,.195,.251,.334,.543,.406,.855,.082,.374,.122,.757,.119,1.14,.008,.38-.036,.759-.133,1.126Z" fill="#fff"/><polygon points="40.698 22.711 40.698 23.509 36.811 23.509 36.811 25.775 40.453 25.775 40.453 26.573 36.811 26.573 36.811 29.038 40.747 29.038 40.747 29.836 35.844 29.836 35.844 22.711 40.698 22.711" fill="#fff"/><path d="M48.065,29.403c-.053-.163-.09-.33-.112-.499-.027-.174-.044-.35-.049-.527,.011-.175,.011-.351,0-.527-.037-.165-.065-.331-.084-.499-.032-.154-.089-.3-.168-.435-.078-.133-.183-.247-.308-.335-.147-.101-.315-.169-.49-.2,.381-.09,.713-.328,.924-.663,.199-.345,.298-.74,.287-1.14,.023-.518-.182-1.02-.56-1.368-.444-.353-.999-.53-1.562-.499h-3.298v7.126h.931v-3.043h2.255c.187-.007,.373,.027,.546,.1,.134,.065,.249,.163,.336,.285,.088,.122,.152,.26,.189,.406,.051,.16,.084,.325,.098,.492,.043,.169,.076,.34,.098,.513v.499c.006,.144,.02,.286,.042,.428,.015,.11,.062,.214,.133,.299h1.009c-.098-.122-.172-.262-.217-.413Zm-1.414-3.664c-.155,.103-.329,.171-.511,.2-.206,.032-.414,.048-.623,.05h-1.94v-2.487h2.318c.349-.032,.694,.093,.945,.342,.203,.244,.308,.557,.294,.876,.009,.219-.036,.438-.133,.634-.08,.159-.201,.292-.35,.385Z" fill="#fff"/><polygon points="51.434 22.711 53.64 28.696 55.854 22.711 57.128 22.711 57.128 29.836 56.246 29.836 56.246 23.908 54.061 29.836 53.248 29.836 51.056 23.908 51.056 29.836 50.16 29.836 50.16 22.711 51.434 22.711" fill="#fff"/><path d="M62.409,22.711h-1.058l-2.724,7.125h.952l.785-2.137h2.962l.764,2.137h1.057l-2.738-7.125Zm-1.751,4.183l1.233-3.321,1.169,3.321h-2.402Z" fill="#fff"/><polygon points="64.93 23.509 64.93 22.711 70.533 22.711 70.533 23.509 68.201 23.509 68.201 29.836 67.269 29.836 67.269 23.509 64.93 23.509" fill="#fff"/><path d="M78.216,24.87c-.133-.434-.347-.838-.63-1.19-.286-.352-.645-.634-1.051-.827-.93-.418-1.99-.418-2.92,0-.419,.189-.79,.471-1.086,.827-.283,.352-.496,.756-.63,1.19h.035c-.28,.914-.28,1.893,0,2.807,.133,.434,.347,.838,.63,1.19,.287,.349,.645,.629,1.051,.819,.932,.408,1.988,.408,2.92,0,.406-.19,.765-.47,1.051-.819,.283-.352,.496-.756,.63-1.19,.29-.912,.29-1.894,0-2.807Zm-.891,2.494c-.087,.338-.234,.657-.434,.941-.195,.281-.451,.513-.749,.677-.694,.342-1.505,.342-2.199,0-.3-.162-.56-.394-.756-.677-.197-.285-.342-.604-.427-.941-.189-.7-.189-1.438,0-2.138,.085-.338,.229-.657,.427-.941,.196-.283,.455-.515,.756-.677,.694-.342,1.505-.342,2.199,0,.297,.164,.554,.396,.749,.677,.2,.284,.347,.603,.434,.941,.189,.7,.189,1.438,0,2.138Z" fill="#fff"/><polygon points="81.241 22.711 81.241 29.038 84.946 29.038 84.946 29.836 80.31 29.836 80.31 22.711 81.241 22.711" fill="#fff"/><path d="M92.636,24.87c-.133-.434-.347-.838-.63-1.19-.286-.352-.645-.634-1.051-.827-.93-.418-1.99-.418-2.92,0-.406,.193-.765,.476-1.051,.827-.283,.352-.496,.756-.63,1.19-.28,.914-.28,1.893,0,2.807,.133,.434,.347,.838,.63,1.19,.287,.349,.645,.629,1.051,.819,.932,.408,1.988,.408,2.92,0,.406-.19,.765-.47,1.051-.819,.283-.352,.496-.756,.63-1.19,.28-.914,.28-1.893,0-2.807Zm-.855,2.494c-.099,.328-.253,.637-.455,.912-.196,.283-.455,.515-.756,.677-.694,.342-1.505,.342-2.199,0-.297-.164-.554-.396-.749-.677-.19-.277-.33-.585-.413-.912-.189-.7-.189-1.438,0-2.138,.087-.338,.234-.657,.434-.941,.195-.281,.451-.513,.749-.677,.694-.342,1.505-.342,2.199,0,.3,.162,.56,.394,.756,.677,.197,.286,.344,.604,.434,.941,.18,.701,.18,1.437,0,2.138Z" fill="#fff"/><path d="M98.975,29.751c-1.269,.532-2.729,.195-3.649-.841-.302-.334-.54-.724-.7-1.147-.148-.433-.223-.888-.224-1.347-.002-.502,.069-1.001,.21-1.482,.129-.449,.343-.868,.63-1.233,.28-.357,.634-.647,1.037-.848,.456-.217,.954-.324,1.457-.314,.361,0,.721,.046,1.072,.135,.324,.087,.63,.231,.903,.428,.281,.184,.52,.427,.7,.713,.195,.326,.322,.69,.371,1.069h-.931c-.039-.253-.127-.495-.259-.713-.116-.19-.272-.353-.455-.477-.19-.13-.401-.227-.623-.285-.242-.066-.492-.1-.742-.1-.38-.009-.757,.082-1.093,.264-.3,.173-.555,.418-.742,.713-.205,.283-.357,.602-.448,.941-.102,.371-.157,.755-.161,1.14,0,.362,.053,.722,.154,1.069,.099,.33,.255,.639,.462,.912,.205,.259,.46,.473,.749,.627,.322,.162,.677,.243,1.037,.235,.333,.005,.664-.058,.973-.185,.266-.11,.505-.277,.7-.492,.195-.203,.345-.446,.441-.713,.097-.294,.139-.603,.126-.912h-2.206v-.827h3.068v3.755h-.602l-.245-.891c-.258,.357-.606,.635-1.009,.805h0Z" fill="#fff"/><rect x="103.03" y="22.711" width=".917" height="7.125" fill="#fff"/><polygon points="111.126 22.711 111.126 23.509 107.232 23.509 107.232 25.775 110.874 25.775 110.874 26.573 107.232 26.573 107.232 29.038 111.168 29.038 111.168 29.836 106.3 29.836 106.3 22.711 111.126 22.711" fill="#fff"/></svg>