<?xml version="1.0" encoding="UTF-8"?> <svg xmlns="http://www.w3.org/2000/svg" viewBox="0 0 127 30"><path d="M43.632,.777c1.574,0,2.711,.863,2.711,2.417,0,.863-.35,1.985-.962,3.366l-6.733,16.399L31.041,5.955c-.612-1.295-.874-2.244-.874-3.193,0-1.036,.874-1.985,2.798-1.985V0h-11.192V.777c2.273,0,2.973,.777,4.285,3.798l10.755,24.426h.612L47.479,4.833c1.224-2.848,2.798-4.143,4.022-4.143V0h-7.782V.777h-.087Z" fill="#fff"></path><path d="M0,0V.777c3.148,0,3.847,.777,3.847,3.366V23.131C3.847,27.187,3.235,27.619,0,27.619v.777H22.035l2.448-7.682-.612-.173c-2.361,5.783-4.022,6.646-9.006,6.646h-3.06c-3.847,0-4.022-.086-4.022-4.747V5.179c0-3.539,.7-4.315,4.547-4.315V0H0Z" fill="#fff"></path><path d="M91.199,.777V0h-7.17l-10.493,22.44L62.606,0h-7.345V.777c3.06,0,3.76,.949,3.76,3.711V23.045c0,4.057-.787,4.488-3.76,4.488v.777h8.919v-.777c-3.06,0-3.76-.432-3.76-4.488V4.488l11.105,23.821h.7l11.017-23.821V23.045c0,4.057-.612,4.488-4.022,4.488v.777h11.979v-.777c-3.323,0-3.847-.518-3.847-4.488V4.056c0-2.503,.787-3.28,3.847-3.28" fill="#fff"></path><path d="M103.003,5.265c0-3.97,.612-4.488,3.847-4.488V0h-11.717V.777c3.323,0,3.847,.518,3.847,4.488V23.045c0,3.97-.612,4.488-3.847,4.488v.777h11.717v-.777c-3.323,0-3.847-.518-3.847-4.488v-7.509c0-.777,.35-1.036,1.224-1.036h12.679c.962,0,1.224,.345,1.224,1.295v7.25c0,3.97-.612,4.488-3.847,4.488v.777h11.717v-.777c-3.323,0-3.847-.518-3.847-4.488V5.265c0-3.97,.612-4.488,3.847-4.488V0h-11.717V.777c3.323,0,3.847,.518,3.847,4.488v6.646c0,1.036-.262,1.295-1.224,1.295h-12.766c-.874,0-1.224-.259-1.224-.949V5.265h.087Z" fill="#fff"></path></svg> 