<?xml version="1.0" encoding="UTF-8"?> <svg xmlns="http://www.w3.org/2000/svg" viewBox="0 0 126 39"><path d="M27.434,33.981h-.16s-1.043,1.514-3.047,1.514c-.642,0-1.203-.239-1.604-.717-.401-.478-.561-1.115-.401-1.753L30,1.159v-.08l-.08-.08h-5.774q-.08,0-.08,.08l-4.571,18.243c-.08,0-1.524-4.7-6.255-4.7-2.486,0-5.132,1.275-7.538,3.585-2.406,2.39-4.25,5.577-5.132,8.843-1.043,3.824-.642,7.488,1.123,9.719,1.123,1.514,2.727,2.231,4.651,2.231,4.731,0,8.902-4.78,8.902-4.78,.08,.398,.321,1.354,.882,2.31,.642,1.115,2.005,2.47,4.331,2.47,2.887,0,5.934-2.151,7.137-4.939q-.08,0-.16-.08Zm-17.563,2.31c-.882,0-1.684-.398-2.245-1.115-1.283-1.593-1.524-4.86-.561-8.444,1.363-5.178,4.731-9.241,7.538-9.241,.882,0,1.684,.398,2.245,1.115,1.283,1.593,1.524,4.86,.561,8.444-1.363,5.099-4.731,9.241-7.538,9.241Z" fill="#fff"></path><path d="M55.765,34.137h-.157s-1.02,1.49-2.982,1.49c-.628,0-1.177-.235-1.569-.706-.392-.471-.549-1.098-.392-1.725l4.08-16.706v-.078l-.078-.078h-5.65q-.078,0-.078,.078l-.863,3.216c-.078,0-1.491-4.627-6.121-4.627-2.433,0-5.022,1.255-7.376,3.529-2.433,2.353-4.159,5.412-5.022,8.706-1.02,3.765-.628,7.373,1.099,9.569,1.099,1.49,2.668,2.196,4.551,2.196,4.63,0,8.71-4.706,8.71-4.706,.078,.392,.314,1.333,.863,2.275,.628,1.098,1.962,2.431,4.237,2.431,2.825,0,5.807-2.118,6.984-4.863q-.157,.078-.235,0Zm-17.184,2.275c-.863,0-1.648-.392-2.197-1.098-1.255-1.569-1.491-4.784-.549-8.314,1.334-5.098,4.63-9.098,7.376-9.098,.863,0,1.648,.392,2.197,1.098,1.255,1.569,1.491,4.784,.549,8.314-1.334,5.02-4.63,9.098-7.376,9.098Z" fill="#fff"></path><path d="M125.138,16.914c-1.045-1.276-2.895-1.914-5.469-1.914-3.136,0-6.353,1.355-9.007,3.748-2.574,2.312-4.423,5.342-5.227,8.611-.885,3.508-.402,6.777,1.287,8.93,1.367,1.754,3.458,2.711,6.032,2.711,6.112,0,9.007-4.545,9.972-6.458h0c0-.08,0-.159-.08-.159s-.161,0-.161,.08h0c-.08,.159-.724,1.355-1.93,2.551-1.608,1.515-3.458,2.312-5.549,2.312-1.045,0-2.493-.239-3.378-1.435-1.206-1.595-1.287-4.385-.08-8.292h.563c8.283,0,12.948-3.508,13.752-6.777,.322-1.515,.08-2.87-.724-3.907Zm-10.857,2.87c1.126-2.153,2.252-3.269,3.458-3.269,.804,0,1.287,.399,1.528,.718,.563,.638,.643,1.674,.322,3.11-.563,2.073-2.815,6.06-7.801,6.14,0,0,1.528-4.864,2.493-6.698Z" fill="#fff"></path><path d="M101.986,26.66l-3.129-6.41,.469-.321s1.486-1.042,1.877-2.644c.235-.962,.078-1.763-.391-2.404-.469-.561-1.173-.881-1.955-.881-2.816,0-5.319,2.484-5.866,4.888-.313,1.122-.078,2.083,.078,2.564,.078,.24,.626,1.522,.939,2.163l-6.648,8.253c-2.347,2.804-3.52,3.766-4.849,3.766-.704,0-1.33-.321-1.799-.881-.391-.561-.548-1.282-.313-2.003l3.207-12.821c.391-1.522,.156-2.885-.626-3.926-.704-.962-1.877-1.522-3.285-1.522-3.05,0-5.241,2.324-6.883,4.327l-2.894,3.526,.704-3.045c.235-1.122,0-2.163-.704-3.045-.626-.721-1.643-1.202-2.738-1.202-2.738,0-5.475,2.324-6.179,5.128h0q0,.08,.078,.08h.078c0-.08,.704-2.324,2.738-2.324,.548,0,1.095,.24,1.408,.641,.313,.401,.391,1.042,.313,1.603l-4.302,17.548v.08l.078,.08h4.615q.078,0,.078-.08l3.363-14.103,2.034-2.324c2.347-2.804,3.52-3.766,4.849-3.766,.704,0,1.33,.321,1.799,.881,.391,.561,.548,1.282,.313,2.003l-3.207,12.821c-.313,1.603-.078,2.965,.704,4.006,.704,.962,1.877,1.522,3.285,1.522,3.363,0,7.196-4.728,7.196-4.728,.313,.801,2.19,4.888,6.805,4.888,3.833,0,8.447-2.003,9.543-6.33,.469-1.843,.235-3.766-.782-6.01Zm-4.693,7.292c-.469,1.683-2.112,2.885-3.989,2.885-4.067,0-5.319-3.686-5.553-4.487l6.57-8.093,2.659,6.01c.469,1.122,.548,2.564,.313,3.686Z" fill="#fff"></path><path d="M39.819,.164l1.114,6.904,.875-6.904h2.944l1.193,11.671h-2.307l-.477-8.384c-.08,1.068-.159,1.644-.318,2.712l-1.034,5.671h-1.671l-1.034-5.26c0-.082-.08-.411-.159-.986q-.159-.904-.239-2.137l-.318,8.384h-2.387L37.034,.164h2.785Z" fill="#fff"></path><path d="M51.993,.164l2.705,11.671h-2.387l-.398-1.973h-2.228l-.398,1.973h-2.228L49.685,.164h2.307Zm-.796,6.082c-.239-1.068-.318-1.89-.477-3.041-.08,1.151-.239,2.384-.398,3.288l-.318,1.644h1.591l-.398-1.89Z" fill="#fff"></path><polygon points="58.517 .164 58.517 11.836 56.289 11.836 56.289 .164 58.517 .164" fill="#fff"></polygon><path d="M65.519,2.795c-.637-.493-1.114-.74-1.591-.74-.637,0-1.114,.493-1.114,1.151s.318,1.068,1.193,1.726c1.114,.904,1.432,1.151,1.75,1.644s.477,1.151,.477,1.808c0,2.137-1.273,3.616-3.103,3.616-.796,0-1.432-.164-1.989-.575v-2.219c.637,.493,1.114,.658,1.671,.658,.716,0,1.273-.493,1.273-1.233,0-.658-.159-.822-1.353-1.726-1.512-1.068-2.069-1.973-2.069-3.452C60.665,1.397,61.859,0,63.609,0c.716,0,1.273,.164,1.989,.575V2.795h-.08Z" fill="#fff"></path><path d="M74.749,1.644c.716,.986,1.034,2.384,1.034,4.356s-.318,3.37-1.034,4.356c-.637,.986-1.83,1.644-2.944,1.644s-2.307-.658-2.944-1.644c-.716-1.068-1.034-2.384-1.034-4.356s.318-3.37,1.034-4.356C69.497,.658,70.691,0,71.805,0,72.998,0,74.112,.658,74.749,1.644Zm-4.456,4.356c0,2.466,.557,3.863,1.591,3.863s1.591-1.397,1.591-3.863-.557-3.863-1.591-3.863-1.591,1.397-1.591,3.863Z" fill="#fff"></path><path d="M80.08,.164l2.785,7.068c-.08-.575-.159-1.151-.159-1.644V.164h2.307V11.836h-2.148l-2.785-6.986c.08,.411,.08,1.151,.08,1.479v5.507h-2.228V.164h2.148Z" fill="#fff"></path><path d="M92.969,.164c1.671,0,2.546,.329,3.421,1.315,.955,.986,1.432,2.63,1.432,4.603,0,3.781-1.591,5.753-4.535,5.753h-2.148V.164h1.83Zm.318,9.534c1.432,0,2.228-1.315,2.228-3.616,0-2.384-.796-3.781-2.228-3.863v7.479Z" fill="#fff"></path><polygon points="104.427 .164 104.427 2.301 102.199 2.301 102.199 4.849 104.188 4.849 104.188 7.069 102.199 7.069 102.199 9.699 104.506 9.699 104.506 11.836 99.971 11.836 99.971 .164 104.427 .164" fill="#fff"></polygon><polygon points="112.622 .164 112.622 9.616 114.929 9.616 114.929 11.836 110.394 11.836 110.394 .164 112.622 .164" fill="#fff"></polygon><path d="M121.295,.164l2.705,11.671h-2.387l-.398-1.973h-2.228l-.398,1.973h-2.228L118.987,.164h2.307Zm-.796,6.082c-.239-1.068-.318-1.89-.477-3.041-.08,1.151-.239,2.384-.398,3.288l-.318,1.644h1.591l-.398-1.89Z" fill="#fff"></path></svg> 