<?xml version="1.0" encoding="UTF-8"?> <svg xmlns="http://www.w3.org/2000/svg" xmlns:xlink="http://www.w3.org/1999/xlink" id="a" viewBox="0 0 131 31"><defs><style>.e{mask:url(#b);}.f,.g{fill:#fff;}.g{fill-rule:evenodd;}</style><mask id="b" y="0" width="127" height="17" maskUnits="userSpaceOnUse"><g id="c"><polygon id="d" points="0 0 127 0 127 17 0 17 0 0" fill="#fff" fill-rule="evenodd"></polygon></g></mask></defs><g mask="#b"><path d="M14.703,5.829c-.482,1.688-2.171,1.774-2.171,1.774h-3.536c-.65,0-.492-.798-.492-.798l.604-2.684c.111-.398,.536-.378,.536-.378l2.91,.024s2.686,.178,2.148,2.063h0Zm6.331-2.129C20.922,.217,15.439,.372,15.439,.372H3.445L0,16.543l6.534,.022,1.208-5.701,3.647-.022s.784,.043,1.365,.709c.396,.452,.246,1.286,.246,1.286l-.47,3.592h6.735s.089-.176,0-.332c-.09-.156-.179-.133-.335-.223-.158-.089-.134-.466-.134-.466,0,0,.827-3.192,.536-4.479-.291-1.287-1.968-1.664-1.968-1.664,0,0-.245-.023-.245-.267s.245-.332,.245-.332c0,0,3.669-.288,3.669-4.969h0Zm9.713,9.687c-5.661-1.22-1.164-8.452-1.164-8.452l-4.364-1.153s7.094-.023,8.392,.022c1.298,.044,1.991,.71,1.991,.71,2.014,1.997,.269,9.493-4.856,8.873h0Zm11.167-2.154c2.103-3.992,.38-7.496,.38-7.496,0,0-1.59-3.859-8.862-3.725-7.273,.132-10.561,4.901-11.166,6.343-.604,1.441-2.685,7.962,3.626,9.937,6.309,1.974,13.527-.323,16.021-5.058h0Zm8.319,1.794l-.201-.284,.086-.314L52.558,.385h-6.436l-3.531,15.687-.029,.173,.058,.17,.201,.143h15.598l.861-3.418h-8.732l-.316-.113Zm17.361,.011l-.2-.284,.086-.313L69.92,.396h-6.434l-3.534,15.689-.029,.17,.057,.171,.2,.144h15.597l.863-3.418h-8.731l-.317-.114Zm19.448,.349c-5.661-1.22-1.162-8.452-1.162-8.452l-4.364-1.153s7.093-.023,8.391,.022c1.297,.044,1.991,.71,1.991,.71,2.014,1.997,.268,9.493-4.856,8.873h0Zm11.166-2.154c2.103-3.992,.379-7.496,.379-7.496,0,0-1.589-3.859-8.861-3.725-7.272,.132-10.561,4.901-11.165,6.343-.604,1.441-2.685,7.962,3.625,9.937,6.31,1.974,13.528-.323,16.022-5.058h0Zm20.586,5.346L122.166,.407h-6.049l-1.828,8.775L108.948,.37h-6.152l-3.515,16.268h6.296l1.58-8.425,.141-.211,.249,.035,5.198,8.542h6.048Zm6.265-12.728c-1.071,0-1.943-.864-1.943-1.926S123.986,0,125.057,0s1.943,.864,1.943,1.926-.871,1.926-1.943,1.926h0Zm-.841-.59c.254,.158,.544,.241,.841,.241,.225,0,.447-.05,.663-.15l-.405-1.068h-.866l-.232,.977Zm1.813-.093c.389-.299,.619-.759,.619-1.243,0-.869-.714-1.577-1.591-1.577s-1.59,.708-1.59,1.577c0,.412,.16,.798,.452,1.096l.606-2.322h.894c.24,0,.428,.045,.556,.132,.19,.133,.275,.33,.253,.586-.019,.219-.101,.41-.243,.569-.073,.082-.178,.146-.328,.202l.373,.98Zm-.855-1.19c.12,0,.236-.022,.344-.066,.106-.043,.189-.111,.251-.202,.062-.093,.103-.219,.112-.318,.011-.124-.026-.192-.104-.269-.077-.076-.196-.115-.356-.115h-.62l-.27,.97h.643Z" fill="#fff" fill-rule="evenodd"></path></g><path d="M52.48,28l1.655-7.902h2.447c.446,0,.776,.018,.992,.054,.353,.061,.65,.168,.892,.32,.243,.153,.431,.361,.563,.626,.133,.264,.2,.556,.2,.876,0,.435-.12,.817-.359,1.147-.239,.331-.604,.583-1.097,.755,.428,.141,.748,.352,.959,.634s.318,.611,.318,.989c0,.435-.125,.852-.375,1.25-.25,.399-.581,.707-.992,.925-.412,.218-.871,.326-1.377,.326h-3.827Zm1.245-.895h1.8c.478,0,.8-.017,.965-.049,.334-.058,.605-.155,.814-.294,.208-.138,.372-.32,.491-.547s.178-.464,.178-.712c0-.37-.116-.651-.348-.844-.231-.191-.673-.288-1.323-.288h-2.005l-.571,2.733Zm.76-3.634h1.601c.766,0,1.316-.122,1.652-.366s.504-.601,.504-1.067c0-.223-.052-.415-.156-.577-.104-.161-.244-.279-.417-.353-.175-.074-.502-.11-.984-.11h-1.682l-.518,2.474Z" fill="#fff"></path><path d="M64.28,28l.636-3.057-2.431-4.846h1.132l1.165,2.307c.255,.503,.503,1.042,.744,1.617,.266-.488,.629-1.022,1.088-1.601l1.855-2.323h1.261l-3.773,4.927-.62,2.976h-1.057Z" fill="#fff"></path><path d="M77.6,28l1.461-7.002h-2.594l.189-.9h6.221l-.189,.9h-2.57l-1.461,7.002h-1.057Z" fill="#fff"></path><path d="M84.301,28l1.654-7.902h1.051l-1.648,7.902h-1.057Z" fill="#fff"></path><path d="M89.055,28l1.649-7.902h1.299l.798,5.121c.104,.672,.173,1.316,.205,1.935,.219-.531,.586-1.252,1.1-2.161l2.771-4.895h1.32l-1.65,7.902h-1.04l.825-3.844c.19-.888,.463-1.883,.819-2.986-.227,.514-.507,1.067-.841,1.66l-2.943,5.17h-1.02l-.792-5.067c-.071-.464-.124-1.004-.156-1.622-.09,.693-.178,1.243-.265,1.649l-1.051,5.04h-1.029Z" fill="#fff"></path><path d="M100.089,28l1.649-7.902h1.057l-.793,3.806,4.291-3.806h1.488l-3.672,3.218,2.69,4.685h-1.181l-2.279-4.005-1.656,1.438-.539,2.566h-1.056Z" fill="#fff"></path><path d="M109.291,28l1.654-7.902h5.703l-.188,.9h-4.647l-.517,2.458h4.528l-.189,.899h-4.527l-.572,2.75h4.977l-.189,.895h-6.031Z" fill="#fff"></path><path d="M118.529,28l1.655-7.902h1.024l1.332,2.965c.405,.905,.727,1.667,.965,2.285,.137,.359,.294,.845,.474,1.456,.097-.665,.22-1.352,.366-2.06l.971-4.646h1.029l-1.648,7.902h-1.047l-1.962-4.565c-.349-.806-.62-1.516-.813-2.13-.055,.514-.158,1.145-.312,1.893l-1.003,4.803h-1.03Z" fill="#fff"></path></svg> 