<?xml version="1.0" encoding="UTF-8"?> <svg xmlns="http://www.w3.org/2000/svg" viewBox="0 0 127 34"><path d="M4.609,19.433c.032,.006,1.058,.445,2.142,.908l3.328,1.407c.789,.321,1.196,1.188,.972,2.071-.27,1.101-1.535,2.145-4.247,1.764-1.079-.155-3.587-.711-3.615-.717l.018,.006c-.06-.022-1.57-.59-2.504-.067-.333,.187-.549,.48-.648,.892-.352,1.468,1.098,1.979,1.108,1.985,.52,.194,1.092,.33,1.552,.429l.389,.108c.027,.003,3.323,.816,5.93,.781,1.716-.026,5.884-.432,7.513-3.549,.239-.458,.574-2.061,.409-3.08-.199-1.177-.536-2.352-2.497-3.676-.497-.329-2.04-.867-3.409-1.34-.718-.241-1.408-.483-1.767-.635-2.402-1.007-2.831-1.927-2.87-2.385-.029-.266,.053-.872,.513-1.415,.577-.648,1.535-.987,2.851-.987,1.98,0,2.744,.245,3.561,.492,.153,.058,.309,.108,.478,.153,.617,.168,1.107,.145,1.457-.077,.411-.27,.499-.727,.53-.886,.048-.283,.112-1.232-1.327-1.838-.118-.047-3.061-1.242-7.697-.572-.648,.091-1.925,.352-3.12,1.052-1.753,1.002-2.664,2.572-2.631,4.517,.022,1.407,.65,2.647,1.823,3.616,.875,.721,1.734,1.036,1.768,1.045" fill="#fff"></path><path d="M34.997,5c-7.738,0-13.997,6.264-13.997,14.001s6.26,13.999,13.997,13.999,14.003-6.27,14.003-13.999-6.271-14.001-14.003-14.001Zm.003,19c-2.755,0-5.006-2.242-5.006-4.999s2.252-5.003,5.006-5.003,4.997,2.239,4.997,5.003-2.245,4.999-4.997,4.999Z" fill="#fff"></path><path d="M54.001,12.234s-.111-2.234,2.276-2.234c1.366,0,2.226,1.238,3.83,1.238,2.053,0,2.599-1.238,5.379-1.238,3.18,0,3.36,1.238,5.323,1.238,2.075,0,2.449-1.238,6.103-1.238,1.94,0,4.079,1.13,4.079,3.565,0,3.32,.009,12.101,.009,12.156,0,1.251-1.017,2.278-2.279,2.278s-2.273-1.027-2.273-2.278V15.761c0-1.11,.013-3.335-1.933-3.382,0,0-4.742-.653-4.742,7.655,0,.132,.005,5.642,.005,5.687,0,1.251-1.021,2.278-2.277,2.278-1.234,0-2.242-.984-2.276-2.209h0V15.759c0-.729,.125-3.379-1.964-3.379-4.04,0-4.705,4.131-4.705,7.519v5.823c0,1.251-1.021,2.278-2.277,2.278-1.234,0-2.244-.984-2.278-2.209V12.234" fill="#fff"></path><path d="M94.791,16.238c.035-1.05,.888-1.862,1.952-1.862h2.481c.805,0,1.447-.235,1.903-.699,.721-.717,.748-1.771,.748-1.969,.003-.274-.037-1.162-.689-1.811-.45-.452-1.091-.687-1.906-.687h-2.52c-1.714,0-1.714-.392-1.714-1.424,0-.021,.052-2.121,1.74-2.712,.533-.196,1.132-.289,1.771-.292h3.039c1.055,0,2.002-.702,2.301-1.708,.069-.224,.104-.453,.104-.683C104,1.071,102.917,0,101.594,0c-.048,0-2.902,.009-2.902,.009-.399,0-.829,.026-1.276,.072-1.357,.143-2.572,.456-3.63,.919-4.442,1.961-4.653,5.966-4.653,6.009l-.005,.062c-.222,1.386-.583,2.138-1.905,2.138-.659,0-1.184,.208-1.57,.628-.681,.721-.655,1.839-.655,1.855v-.016c0,2.274,2.159,2.699,2.192,2.703,1.02,.085,1.788,.905,1.788,1.905h0c0,.053-.012,5.17-.012,7.869,0,.951,.26,1.685,.758,2.188,.658,.653,1.504,.66,1.534,.66h1.161c.068,0,.704-.013,1.3-.427,.486-.328,1.07-1.016,1.07-2.395v-7.941h0Z" fill="#fff"></path><path d="M110.963,23.85c.17,.379,.257,.785,.257,1.216,0,2.261-1.235,3.234-1.833,3.742-1.506,1.269-3.647,1.177-3.671,1.177h-1.167c-.734,0-1.548,.619-1.548,1.501,0,.942,.62,1.512,1.66,1.512h1.061c.057,0,1.548,.061,3.151-.46,1.617-.526,3.851-1.762,5.397-4.663,.368-.688,3.552-7.989,5.872-13.313l1.77-4.045c.103-.249,.116-.493,.047-.716-.077-.253-.263-.462-.528-.607-.457-.242-1.095-.255-1.722-.054-.645,.211-1.189,.645-1.399,1.128-.019,.063-2.646,5.843-2.837,6.241-.512,1.043-1.133,1.649-1.7,1.649-.667,0-1.083-.082-2.04-1.743-.073-.128-2.946-5.29-3.406-6.097-.258-.509-.818-.942-1.497-1.163-.682-.216-1.382-.208-1.875,.054-.29,.156-.494,.386-.577,.657-.077,.244-.055,.514,.054,.784,.022,.053,6.165,12.417,6.533,13.199Z" fill="#fff"></path><path d="M122.977,28c-1.777,0-2.977-1.278-2.977-2.991s1.213-3.009,2.991-3.009c1.719,0,3.009,1.294,3.009,3.009s-1.308,2.991-3.023,2.991Zm0-5.302c-1.277,0-2.193,1.003-2.193,2.311,0,1.297,.915,2.305,2.193,2.305s2.192-1.008,2.192-2.305c0-1.308-.92-2.311-2.192-2.311Zm.492,3.764c-.41-.729-.648-1.178-.755-1.178h-.071v1.178h-.66v-2.991h.996c.665,0,1.025,.349,1.025,.812,0,.488-.416,.733-.678,.819v.007c.144,0,.556,.697,.919,1.352h-.776Zm-.717-2.482h-.109v.791h.094c.312,0,.56-.118,.56-.428,0-.286-.195-.363-.546-.363Z" fill="#fff"></path></svg> 