<?xml version="1.0" encoding="UTF-8"?> <svg xmlns="http://www.w3.org/2000/svg" viewBox="0 0 115 72"><path d="M15.088,58.593v12.577H93.042v-12.577H15.088Zm15.127,2.03c.539-.31,1.735-1.413,1.919-.228-.118,.555-1.111,.63-1.55,.928-.432,.267-.809-.475-.369-.7Zm-4.888,7.791c-.402-.018-.974,.267-1.095-.444-.216-.787-.042-1.637-.474-2.35-1.946,3.803-1.424,3.771-3.434-.033-.5,1.09,.077,3.341-1.665,2.821-.247-.091-.258-.278-.225-.481,.31-1.87,.624-3.739,.939-5.607,.025-.468,.567-.486,.711-.071,.535,.99,1.061,1.986,1.599,2.975,.214,.641,.564,.613,.766-.017,.522-.953,1.032-1.912,1.551-2.866,.199-.576,.781-.484,.771,.13,.306,1.77,.599,3.543,.899,5.314,.052,.307,.123,.65-.341,.629Zm7.237,.019c-5.11-.039-3.274,.879-3.607-5.945,.023-.975,1.498-.405,2.131-.551,.694,.12,2.141-.418,2.038,.71,.004,.459-.131,.713-.638,.693-.613,.12-2.143-.407-2.104,.553,0,.431,.206,.548,.587,.534,.355-.013,.712,.014,1.067-.003,.868-.137,.867,1.549,.001,1.416-.579,.091-1.692-.35-1.66,.584-.028,1.061,1.504,.464,2.174,.61,.788-.125,.795,1.509,.011,1.401Zm6.944-5.089c-.823,.012-.823,.035-.824,.88-.001,1.184-.017,2.369,.006,3.553,.011,.541-.246,.673-.727,.665-.46-.008-.831-.034-.806-.648,.049-1.222-.043-2.451,.013-3.671,.039-.575-.136-.868-.757-.789-.918,.242-.985-1.498-.092-1.401,1.067,.014,2.134,.016,3.2,0,.519-.008,.622,.267,.624,.711,.002,.455-.13,.694-.637,.701Zm7.452,2.914c.169,.532,1.673,2.247,.458,2.181-.675,.074-1.127-.126-1.375-.806-.282-.471-.592-1.782-1.231-1.738-.29,.054-.277,.299-.281,.514-.13,.693,.408,2.148-.725,2.03-.424-.001-.74-.06-.728-.6,.016-1.756,.01-3.513,0-5.269-.165-1.094,2.183-.493,2.887-.629,1.014,.024,1.749,.565,2.014,1.448,.594,1.883-1.546,2.055-1.02,2.869Zm7.214,2.263c-4.263,.062-4.365-6.706-.04-6.617,4.41-.131,4.328,6.642,.04,6.617Zm8.732-2.448q-.83,.01-.834,.813c-.041,.751,.25,1.734-.839,1.552-.422-.008-.612-.171-.606-.602,.009-1.757,.013-3.515-.001-5.271-.055-1.084,1.671-.49,2.355-.622,2.885,.065,2.787,4.162-.075,4.131Zm7.99,2.448c-4.302-.032-4.322-6.734,.105-6.617,4.392,0,4.239,6.691-.105,6.617Zm10.386-.76c-.005,.582-.289,.691-.779,.678-.788-.02-1.577-.001-2.366-.007-.703-.005-.758-.063-.762-.794-.015-1.694,.023-3.389-.005-5.083-.015-.57,.317-.628,.763-.627,.443,0,.776,.05,.767,.623-.019,1.261,.017,2.522-.014,3.782-.108,1.591,2.502-.202,2.395,1.427Zm4.287-3.874c0,.367,.135,.551,.522,.539,.641,.077,1.933-.343,1.825,.686,.133,1.066-1.183,.653-1.849,.724-.407-.014-.503,.21-.498,.558,.005,.337,.011,.646,.48,.638,.553-.009,1.106,.014,1.658,0,.538-.014,.593,.313,.595,.735,.002,.427-.123,.676-.602,.67-.987-.013-1.975-.011-2.962,0-.425,.005-.611-.176-.605-.603,.007-1.756,.012-3.512-.002-5.268-.008-.455,.185-.64,.637-.633,.967,.015,1.935,.017,2.902,0,.511-.009,.633,.25,.633,.702,0,.447-.112,.724-.627,.706-.606,.121-2.162-.404-2.109,.547Z" fill="#fff"></path><path d="M72.747,65.209c-.008,1.015-.807,1.815-1.808,1.807-.976-.008-1.815-.845-1.823-1.819-.008-.959,.854-1.84,1.803-1.842,1.029-.002,1.837,.817,1.829,1.854Z" fill="#fff"></path><path d="M55.999,65.194c-.004,.968-.853,1.818-1.82,1.821-.963,.003-1.823-.845-1.834-1.809-.012-.986,.873-1.869,1.853-1.851,.972,.018,1.805,.869,1.801,1.839Z" fill="#fff"></path><path d="M45.272,64.746c-.215-.041-.595,.121-.697-.269-.093-.353-.138-.746,.062-1.085,.122-.207,1.185-.215,1.527-.033,.3,.16,.503,.404,.412,.761-.132,.518-.563,.598-1.013,.625-.078,.005-.157,0-.291,0Z" fill="#fff"></path><path d="M62.626,63.328c.602,.029,.987,.135,.988,.693,0,.472-.395,.733-1.016,.727-.633-.006-.499-.458-.526-.833-.039-.537,.269-.633,.554-.587Z" fill="#fff"></path><path d="M114.733,8.465c-.131,.411-.25,.826-.394,1.232-1.052,2.963-3.165,5.024-5.72,6.708-.971,.64-1.908,1.346-3.058,1.654-1.404,.376-2.937-.616-3.114-2.045-.098-.796,.095-1.525,.712-2.102,.494-.463,1.056-.826,1.625-1.182,.166-.104,.341-.206,.48-.341,.823-.8,.77-.751-.098-1.48-.897-.754-1.872-1.517-2.311-2.638-.617-1.578-.276-3.127,.583-4.531,1.248-2.039,4.075-3.249,6.424-2.826,2.258,.407,4.255,2.598,4.745,5.209,.029,.152,.007,.319,.127,.446v1.897Z" fill="#fff"></path><path d="M7.17,32.713c1.242-.481,2.385-.96,3.369-1.745,2.701-2.157,5.426-4.286,7.956-6.646,.699-.652,1.543-1.063,2.397-1.376,1.927-.707,4.123,1.268,3.713,3.271-.298,1.455-1.058,2.67-2.035,3.759-1.33,1.484-2.899,2.684-4.578,3.739-2.861,1.797-5.571,3.822-8.471,5.561-.631,.378-1.258,.74-1.96,.962-1.186,.375-2.309,.941-3.531,1.198-1.15,.242-1.85-.088-2.413-1.12-.751-1.376-1.031-2.886-1.243-4.421-.324-2.336,.153-4.601,.531-6.879,.366-2.201,.681-4.412,.84-6.637,.076-1.058-.058-2.13-.057-3.195,.002-2.253,1.737-4.215,3.967-4.518,1.262-.172,2.259,.499,2.556,1.747,.366,1.539,.271,3.107,.19,4.662-.171,3.272-.478,6.534-.908,9.784-.077,.584-.201,1.162-.323,1.854Z" fill="#fff"></path><path d="M57.669,18.481c-.085,2.052-.214,3.631-.203,5.208,.022,3.053-.044,6.114,.371,9.15,.229,1.676,.075,3.349,.069,5.025-.008,2.388,.093,4.776,.417,7.147,.07,.511,.114,1.006-.033,1.521-.264,.924-.173,1.881-.192,2.827-.032,1.599-.538,3.028-1.629,4.214-1.384,1.504-2.879,1.468-4.197-.083-1.324-1.558-1.86-3.371-1.428-5.358,.629-2.894,.45-5.762,.021-8.649-.108-.724,.077-1.46,.208-2.171,.33-1.794,.175-3.579,.035-5.371-.144-1.845-.274-3.679-.123-5.548,.136-1.675-.006-3.375,.325-5.046,.038-.19,.035-.399,.002-.591-.324-1.896-.036-3.767,.191-5.645,.179-1.484,1.902-2.841,3.386-2.595,.664,.11,1.052,.587,1.383,1.118,.806,1.293,1.429,3.694,1.397,4.847Z" fill="#fff"></path><path d="M76.432,48.528c-.015,1.746-.529,2.505-2.153,3.131-.331,.127-.672,.232-1.016,.318-1.541,.387-2.639-.193-3.164-1.7-.286-.82-.423-1.658-.432-2.546-.016-1.517-.23-3.021-.694-4.483-.705-2.22-1.385-4.455-1.486-6.802-.064-1.502,.16-2.999,.489-4.454,.301-1.332,1.427-2.257,2.476-2.325,.833-.054,1.454,.31,1.929,.947,.428,.574,.762,1.23,.928,1.906,.691,2.816,1.413,5.63,1.922,8.481,.388,2.172,.769,4.348,1.144,6.524,.057,.328,.039,.668,.056,1.003Z" fill="#fff"></path><path d="M67.614,18.67c2.538-.084,3.605,.965,3.6,3.526-.005,2.379-1.365,3.991-3.602,4.21-1.031,.101-1.862-.237-2.642-1.013-1.161-1.154-.997-2.426-.667-3.768,.199-.808,.576-1.523,1.121-2.182,.444-.538,.897-.853,1.598-.776,.195,.022,.394,.003,.592,.003Z" fill="#fff"></path><path d="M105.233,32.339c-.017-.315-.066-.628-.111-.941-.548-3.826-2.353-6.914-5.446-9.243-.062-.047-.137-.097-.21-.105-.993-.105-1.868-.644-2.848-.783-2.944-.416-5.527,.55-7.914,2.152-1.103,.741-1.92,1.752-2.372,3.03-.061,.172-.127,.406-.382,.394-.239-.011-.297-.235-.387-.405-.222-.419-.408-.85-.538-1.311-.363-1.292-.79-2.567-1.119-3.866-.26-1.026-.868-1.901-1.16-2.902-.475-1.629-.927-3.266-1.351-4.909-.2-.776-.698-1.159-1.436-1.303-.532-.104-1.064-.07-1.588,.053-2.137,.5-2.899,1.817-2.262,3.901,.687,2.246,1.397,4.485,1.93,6.775,.139,.596,.196,1.238,.467,1.769,.933,1.83,1.356,3.828,1.997,5.752,.19,.569,.405,1.107,.787,1.572,.344,.418,.556,.898,.719,1.414,.47,1.487,.963,2.966,1.452,4.446,.068,.204,.132,.427,.261,.591,.666,.846,.98,1.835,1.222,2.859,.063,.267,.132,.548,.271,.779,.646,1.075,.928,2.258,1.072,3.482,.049,.421,.222,.742,.557,.997,.394,.3,.793,.59,1.245,.797,1.851,.848,3.203,.284,3.847-1.638,.134-.401,.352-.696,.679-.933,.653-.474,1.374-.8,2.187-.825,.919-.029,1.749-.324,2.516-.786,.447-.269,.904-.505,1.408-.597,1.599-.293,2.766-1.322,3.889-2.353,1.975-1.813,2.668-4.178,2.621-6.796,0-.355,.015-.711-.004-1.066Zm-6.95,2.22c-.203,.281-.332,.592-.401,.915-.169,.788-.624,1.329-1.301,1.735-.44,.263-.84,.59-1.268,.874-.489,.325-1.033,.486-1.554,.493-1.23-.031-2.138-.585-2.922-1.388-.5-.512-.904-1.095-1.228-1.734-1.021-2.014-.831-3.523,.667-5.224,1.265-1.436,2.86-2.343,4.674-2.894,1.017-.309,1.83,.053,2.472,.831,.759,.92,1.074,2.045,1.431,3.158,.386,1.202,.14,2.251-.57,3.233Z" fill="#fff"></path><path d="M44.136,32.617c-.595-3.224-2.853-5.474-6.008-5.967-1.641-.256-3.239-.095-4.862,.313-2.654,.666-4.702,2.275-6.727,3.962-.072,.06-.122,.156-.158,.245-.393,.97-.797,1.936-1.045,2.957-.401,1.65-.802,3.3-1.375,4.902-.59,1.65-.302,3.184,.62,4.625,.565,.882,1.306,1.683,1.704,2.63,.537,1.279,1.548,2.005,2.572,2.767,1.466,1.089,3.012,2.035,4.77,2.591,.593,.187,1.185,.267,1.809,.151,1.546-.288,2.938-.831,4.02-2.052,.509-.575,1.115-1.061,1.436-1.788,.564-1.278-.042-2.509-1.393-2.85-.95-.24-1.839-.06-2.716,.306-1.12,.468-2.288,.409-3.35-.037-1.721-.723-2.839-2.158-3.794-3.703-.469-.759-.328-1.378,.317-2.005,.61-.594,1.321-.749,2.13-.573,.773,.169,1.533,.381,2.284,.633,1.35,.455,2.735,.771,4.127,1.074,3.215,.7,5.526-1.724,5.735-4.056,.054-.609,.11-1.219,.149-1.655-.017-.947-.105-1.712-.245-2.47Zm-5.441,3.221c-.169,.334-.514,.405-.871,.386-2.115-.111-4.129-.665-6.091-1.424-.538-.208-.71-1.055-.313-1.633,.481-.7,1.075-1.235,2.023-1.258,.887-.022,1.771-.148,2.422-.206,1.46,.002,2.576,.213,3.11,1.52,.377,.922,.139,1.785-.281,2.616Z" fill="#fff"></path></svg> 